# xmcd
#
# Track frame offsets: 
#        150
#        153397
#        195832
#
# Disc length: 3636 seconds
#
# Revision: 1
# Processed by: cddbd v1.5.2PL0 Copyright (c) Steve Scherf et al.
# Submitted via: ExactAudioCopy v0.99pb5
#
DISCID=170e3203
DTITLE=Gielen and Berlin RSO - Mahle  Symphony No 3 - 19 Nov 1984 - DISC
DTITLE=1
DYEAR=2011
DGENRE=Classical
TTITLE0=I. Kraftig. Entschieden
TTITLE1=II. Tempo di Menuetto. Grazioso
TTITLE2=III. Comodo. Scherzando. Ohne Hast
EXTD=
EXTT0=
EXTT1=
EXTT2=
PLAYORDER=
